{"title":"Toy.Story.3.2010.CAM.XviD-PrisM","uid":5639058,"size":1312966209,"categoryP":"video","categoryS":"movies","magnet":"?xt=urn:btih:1359f6cde62129906321b2d44cbfbc03b6b07659&amp;dn=Toy.Story.3.2010.CAM.XviD-PrisM&amp;tr=udp%3A%2F%2Ftracker.openbittorrent.com%3A80&amp;tr=udp%3A%2F%2Fopen.demonii.com%3A1337&amp;tr=udp%3A%2F%2Ftracker.coppersurfer.tk%3A6969&amp;tr=udp%3A%2F%2Fexodus.desync.com%3A6969","seeders":0,"leechers":0,"uploader":"YoCkNeR-BeNzO","files":30,"time":1277015754,"description":"Woody, Buzz and the whole gang are back. As their owner Andy prepares to depart for college, his loyal toys find themselves in daycare where untamed tots with their sticky little fingers do not play nice. So, it's all for one and one for all as they join Barbie's counterpart Ken, a thespian hedgehog named Mr. Pricklepants and a pink, strawberry-scented teddy bear called Lots-o'-Huggin' Bear to plan their great escape. \n\n \nUser Rating:9.5/10\nMOVIEmeter: Up 100% in popularity this week\nhttp://www.imdb.com/title/tt0435761/\nGenre:Animation | Adventure | Comedy | Family | Fantasy\n\n \nVideo\nID : 0\nFormat : MPEG-4 Visual\nFormat profile : Advanced Simple@L5\nFormat settings, BVOP : Yes\nFormat settings, QPel : No\nFormat settings, GMC : No warppoints\nFormat settings, Matrix : Default (H.263)\nMuxing mode : Packed bitstream\nCodec ID : XVID\nCodec ID/Hint : XviD\nDuration : 1h 34mn\nBit rate : 1 696 Kbps\nWidth : 720 pixels\nHeight : 360 pixels\nDisplay aspect ratio : 2.000\nFrame rate : 25.000 fps\nResolution : 8 bits\nColorimetry : 4:2:0\nScan type : Progressive\nBits/(Pixel*Frame) : 0.262\nStream size : 1.11 GiB (92%)\nWriting library : XviD 1.2.1 (UTC 2008-12-04)\n\nAudio\nID : 1\nFormat : MPEG Audio\nFormat version : Version 1\nFormat profile : Layer 3\nMode : Joint stereo\nFormat_Settings_ModeExtension : MS Stereo\nCodec ID : 55\nCodec ID/Hint : MP3\nDuration : 1h 34mn\nBit rate mode : Constant\nBit rate : 128 Kbps\nChannel(s) : 2 channels\nSampling rate : 48.0 KHz\nStream size : 86.2 MiB (7%)\nAlignment : Split accross interleaves\nInterleave, duration : 40 ms (1.00 video frame)\nInterleave, preload duration : 500 ms\n\n\nh*t*t*p*://*i45*.*tinypic*.*com*/2qdza1g.jpg \nh*t*t*p*://*i50*.*tinypic*.*com*/2ykf4p1.png \nh*t*t*p*://*i48*.*tinypic*.*com*/t851jn.png","torrent":{"xt":"urn:btih:1359f6cde62129906321b2d44cbfbc03b6b07659","amp;dn":"Toy.Story.3.2010.CAM.XviD-PrisM","amp;tr":["udp%3A%2F%2Ftracker.openbittorrent.com%3A80","udp%3A%2F%2Fopen.demonii.com%3A1337","udp%3A%2F%2Ftracker.coppersurfer.tk%3A6969","udp%3A%2F%2Fexodus.desync.com%3A6969"],"infoHash":"1359f6cde62129906321b2d44cbfbc03b6b07659","infoHashBuffer":{"type":"Buffer","data":[19,89,246,205,230,33,41,144,99,33,178,212,76,191,188,3,182,176,118,89]},"announce":[],"urlList":[]}}